<?xml version="1.0" encoding="utf-8"?>
<!-- Generator: Adobe Illustrator 21.1.0, SVG Export Plug-In . SVG Version: 6.00 Build 0)  -->
<svg version="1.1" id="Layer_1" xmlns="http://www.w3.org/2000/svg" xmlns:xlink="http://www.w3.org/1999/xlink" x="0px" y="0px"
	 viewBox="0 0 559.1 151.1" style="enable-background:new 0 0 559.1 151.1;" xml:space="preserve">
<style type="text/css">
	.st0{fill:#FFFFFF;}
	.st1{fill:#333333;}
</style>
<title>Asset 1</title>
<g id="Layer_2">
	<g id="Layer_1-2">
		<path class="st0" d="M290.3,1.9c-0.2,2.6,4.6,1.2,3.5,4.3c-1,2.7-3.3,3.2-5.9,3.2c-6.2-0.1-12.4-0.1-18.6,0
			c-28.1,0.5-56,3.5-83.8,7.2c-30.5,4-60.4,10.1-89.2,20.8C84,41.8,72.3,47.3,63,56.8c-11,11.4-9.4,23.2,3.8,32.7
			c21,15,45.2,21.8,69.6,27.6c24.1,5.7,48.6,9.6,73.3,11.7c18.3,1.6,36.7,2.3,54.9,3.9c17.8,1.5,35.7,1.9,53.6,1.1
			c30.5-1.3,61-2.7,91.3-6.9c30.3-4.2,60.6-9.4,89.8-18.9c12.5-4,24.5-9.7,35.5-17c5.5-3.7,10.8-8.3,12.5-15.3
			c0.7-2.7,1.8-5.6,4.2-4.6c1.6,0.7,3.1,3.6,2.4,7.4c-2.8,16.6-15.6,23.7-28,30.8c-22.3,12.8-47.1,19-71.9,24.3
			c-23.3,5-46.9,8.7-70.6,11.3c-32.1,3.5-64.5,4.8-96.8,4c-16.1-0.4-32.3,0.5-48.4-0.2c-26.8-1.1-53.5-3.5-80.1-7.1
			c-31.9-4.4-63.4-10.5-93.9-20.9c-17.7-6-34.7-13.8-47.5-28.5c-8-9.2-8-23,0.1-32.1c18.9-21,44.9-28.5,70.6-35.7
			c30.5-8.5,61.8-13.7,93.3-16.8c28.4-2.8,57-5.1,85.6-4.1c3,0.1,6.8,2.2,9.2-1.7L290.3,1.9z"/>
		<path class="st0" d="M388.9,83.7c-3.4-5.4-8.5-5.5-12.5-7c-5.6-2.2-9.8-4.3-9.9-11.2c-0.1-7.4,3.5-13.2,10-14.5
			c7.6-1.5,16.5-3.4,23.3,1.3c7.5,5.2,9.8-3.9,15.1-3.5c0.2-9,7.8-9.1,14.2-11.7c1.4,4.3,1,8.3-0.1,12.7l8.4,0.9
			c-0.7,3.8-1.9,7.7-4.9,8.7c-8.4,3-8.1,10.5-9.8,16.9c-0.7,2.7-2.5,8,4.3,7.5c3.5-0.3,2.8,2.4,2.9,4.4c0.1,2.6,0.1,5.7-2.8,6.2
			c-5.4,0.9-11.2,2-16-1.5c-4.3-3.2-3.5-7.9-2.9-13.1c0.8-6.4,7.4-13.8-2.2-19.8c-2.1-1.3-2.5-1.5-3.5-0.1
			c-3.4,4.8-7.3,4.7-12.2,2.2c-2.6-1.3-7.4-2.6-8.6,1.3c-1.6,5.4,3.9,2.8,6.2,3.8c5.6,2.5,12.5,3.4,13.9,11c1,5.6-1.4,10.1-5.4,13.8
			c-5.9,5.5-29.9,4.6-34.7-1.4c-1.4-1.4-1.3-3.7,0.1-5.1c0.2-0.2,0.4-0.4,0.7-0.5c2.4-1.6,3.3-6.8,7.8-4
			C376.1,84.8,382.2,83.8,388.9,83.7z"/>
		<path class="st0" d="M223.2,83.7c-3.4-5.4-8.5-5.8-12.5-6.9c-7.9-2.2-10.4-7.4-9.6-14.2s5.6-11.8,12.7-12
			c8.1-0.3,16.2-1.3,24.2,3.1c3.8,2.1,8.7-3,11.3-6.2c5.3-6.5,4.7-7,14.2-10c1.3,4.2,1,8.6-0.7,12.6l8.7,0.5c-0.4,4.1-2,8.1-5.1,9.3
			c-9.3,3.5-7.7,12-9.6,18.9c-0.6,2.1-1,5.3,3.2,5c7-0.4,3.7,5,4,7.9c0.5,4.9-3.6,3.1-5.9,3.2c-14.5,0.7-18.9-1.5-13.8-21.7
			c0.9-3.7,3.2-6.8-1.3-10.3c-3.3-2.6-5.4-6.4-8.7-0.5c-2.1,3.8-5.1,1.4-7.1,0.7c-3.8-1.3-7.4-2.5-11.4-0.9c-0.4,5.9,5,5.1,7.8,5.9
			c8,2.2,13.6,5.9,12.3,14.9c-1.1,7.8-6.4,10.7-14.3,12.5c-8.5,2-15.2-0.8-22.5-3.1c-2.5-0.8-5.9-2.5-3.5-5.6c2-2.6,3.6-8.4,8.8-5.5
			C210.4,84.5,216.4,83.8,223.2,83.7z"/>
		<path class="st0" d="M293.3,35.7l-2.9,14.9c1.5,2,2.1-0.1,3.1-0.2c21.5-1.1,23.3,1.4,19.8,22.7c-0.8,4.7-1.6,9.5-2.6,14.2
			c-1.1,5.6-3.5,8.7-10.3,7.9c-4.6-0.5-5.3-2.5-4.4-5.8c1.7-6.1,2.8-12.3,3.9-18.5c0.6-3.6,2.4-6.7-2.5-7.4c-4-0.6-8.9-1.7-10.3,4.3
			c-1.5,6.4-3,12.8-4.2,19.3c-1.3,7.1-6.4,10.3-13,7.9c-3.1-1.2-2.2-3.6-1.9-5.3c3-14.7,6.1-29.4,9.6-44
			C279.9,36.2,281.8,35.3,293.3,35.7z"/>
		<path class="st0" d="M180.2,64.7c-3.2-4.8-7.3-3.7-10.9-2.3c-3.9,1.5-7.1,1.8-9.3-2.4c-2.1-4-3.9-7.2,3.2-8.6
			c7.8-1.5,15.8-1.6,23.7-0.5c6.2,0.8,9.1,10,6.2,20.2c-1.4,4.9-2.1,9,0,14c1.4,3.5-0.4,10.3-3.8,9.4c-9.9-2.5-18.9,2.9-28.7,1.1
			c-8.4-1.6-11.6-5.8-11.8-13.2c-0.2-6.7,7.3-14.4,14.4-15.3c3-0.4,5.9,0.4,8.9-1.4C174.1,64.5,177.2,65,180.2,64.7z"/>
		<path class="st0" d="M342.9,50.3c15.2,0,20,4.4,20,18.1c-0.1,17.3-10.5,28.9-25.7,28.4c-12.9-0.4-21.5-7.9-20.8-19.5
			C317.4,61.8,324.9,47.6,342.9,50.3z"/>
		<path class="st0" d="M460.3,83.3c-3-6.1-8.4-4.9-12.3-6.1c-7.9-2.4-9.3-7.3-8.9-14.5s5.7-10.7,10.9-11.8c7-1.4,14.5-1.6,21.7,1.2
			c3.1,1.3,6.3,1.8,3.5,6c-1.9,2.9-2.2,8.2-8,6.2c-1.1-0.4-2.2-0.9-3.3-1.4c-3.8-2-9-3.2-10.5,1c-1.6,4.4,4.6,3.5,7.1,4.4
			c12,4.8,14.5,7.9,12.2,17.6c-1.5,6.2-12,12.7-19.7,10.8c-5.2-1.3-11-0.7-15.5-4.3c-2.1-1.7-7.2-1.7-3.8-6.6
			c2.4-3.6,4.4-7.8,9.9-4.3C448.6,84.6,454,84.2,460.3,83.3z"/>
		<path class="st0" d="M156.1,52c-0.6,1.4-0.9,4.2-2.4,5c-12,6.9-12.2,19.5-13.8,30.5c-1.2,8.3-6.5,7.7-11.2,9.2
			c-3.6,1.1-4.9-0.9-3.9-4.7c2-6.9,3.7-13.9,5-21c0.4-2.8,2.6-7.1-3.9-8.2c-3.6-0.7-1.4-12,2.8-12.2c5-0.3,5.7-3.2,7-6.6
			c3.2-8.4,13.3-13,21.8-10.5c3.4,1,2.1,3.2,2.3,5.1c0.3,3.1-0.6,5.8-4.1,6c-2.9,0.2-6.5,0.1-6.7,3.3
			C148.7,52.9,154.6,48.3,156.1,52z"/>
	</g>
</g>
<path class="st1" d="M330.5,78.3c-0.4-7.9,2.9-13.3,10.3-13.9c4.8-0.3,9.1,3.8,7.9,8.7c-1.4,5.7-0.6,14.1-11.1,13.6
	C330.8,86.4,329.9,83.2,330.5,78.3z"/>
<path class="st1" d="M162.4,84c-0.4-4.8,2.9-8.1,10.3-8.4c4.8-0.2,9.1,2.3,7.9,5.3c-1.4,3.4-0.6,8.6-11.1,8.3
	C162.7,88.9,161.8,86.9,162.4,84z"/>
</svg>
